<svg width="136" height="41" viewBox="0 0 136 41" fill="none" xmlns="http://www.w3.org/2000/svg">
<g clip-path="url(#clip0_150635_89)">
<path d="M130.5 40.7002H5.5C2.7 40.7002 0.5 38.5002 0.5 35.7002V5.7002C0.5 2.9002 2.7 0.700195 5.5 0.700195H130.5C133.3 0.700195 135.5 2.9002 135.5 5.7002V35.7002C135.5 38.4002 133.3 40.7002 130.5 40.7002Z" fill="black"/>
<path d="M130.5 1.50019C132.8 1.50019 134.7 3.4002 134.7 5.7002V35.7002C134.7 38.0002 132.8 39.9002 130.5 39.9002H5.5C3.2 39.9002 1.3 38.0002 1.3 35.7002V5.7002C1.3 3.4002 3.2 1.50019 5.5 1.50019H130.5ZM130.5 0.700195H5.5C2.7 0.700195 0.5 2.9002 0.5 5.7002V35.7002C0.5 38.5002 2.7 40.7002 5.5 40.7002H130.5C133.3 40.7002 135.5 38.5002 135.5 35.7002V5.7002C135.5 2.9002 133.3 0.700195 130.5 0.700195Z" fill="#A7A6A6"/>
<path d="M47.9 10.9001C47.9 11.7001 47.7 12.4001 47.2 12.9001C46.6 13.5001 45.9 13.8001 45 13.8001C44.1 13.8001 43.4 13.5001 42.8 12.9001C42.2 12.3001 41.9 11.6001 41.9 10.7001C41.9 9.8001 42.2 9.1001 42.8 8.5001C43.4 7.9001 44.1 7.6001 45 7.6001C45.4 7.6001 45.8 7.7001 46.2 7.9001C46.6 8.1001 46.9 8.3001 47.1 8.6001L46.6 9.0001C46.2 8.5001 45.7 8.3001 45 8.3001C44.4 8.3001 43.8 8.5001 43.4 9.0001C42.9 9.4001 42.7 10.0001 42.7 10.7001C42.7 11.4001 42.9 12.0001 43.4 12.4001C43.9 12.8001 44.4 13.1001 45 13.1001C45.7 13.1001 46.2 12.9001 46.7 12.4001C47 12.1001 47.2 11.7001 47.2 11.2001H45V10.5001H47.9C47.9 10.6001 47.9 10.8001 47.9 10.9001Z" fill="white" stroke="white" stroke-width="0.2" stroke-miterlimit="10"/>
<path d="M52.5 8.4001H49.8V10.3001H52.3V11.0001H49.8V12.9001H52.5V13.6001H49V7.6001H52.5V8.4001Z" fill="white" stroke="white" stroke-width="0.2" stroke-miterlimit="10"/>
<path d="M55.8 13.7002H55V8.4002H53.3V7.7002H57.4001V8.4002H55.7001V13.7002H55.8Z" fill="white" stroke="white" stroke-width="0.2" stroke-miterlimit="10"/>
<path d="M60.4 13.7002V7.7002H61.2V13.7002H60.4Z" fill="white" stroke="white" stroke-width="0.2" stroke-miterlimit="10"/>
<path d="M64.6 13.7002H63.8V8.4002H62.1V7.7002H66.2V8.4002H64.5V13.7002H64.6Z" fill="white" stroke="white" stroke-width="0.2" stroke-miterlimit="10"/>
<path d="M74.1 12.9001C73.5 13.5001 72.8 13.8001 71.9 13.8001C71 13.8001 70.3 13.5001 69.7 12.9001C69.1 12.3001 68.8 11.6001 68.8 10.7001C68.8 9.8001 69.1 9.1001 69.7 8.5001C70.3 7.9001 71 7.6001 71.9 7.6001C72.8 7.6001 73.5 7.9001 74.1 8.5001C74.7 9.1001 75 9.8001 75 10.7001C75 11.5001 74.7 12.3001 74.1 12.9001ZM70.3 12.4001C70.7 12.8001 71.3 13.1001 71.9 13.1001C72.5 13.1001 73.1 12.9001 73.5 12.4001C73.9 12.0001 74.2 11.4001 74.2 10.7001C74.2 10.0001 74 9.4001 73.5 9.0001C73.1 8.6001 72.5 8.3001 71.9 8.3001C71.3 8.3001 70.7 8.5001 70.3 9.0001C69.9 9.4001 69.6 10.0001 69.6 10.7001C69.6 11.4001 69.8 11.9001 70.3 12.4001Z" fill="white" stroke="white" stroke-width="0.2" stroke-miterlimit="10"/>
<path d="M76.1 13.7002V7.7002H77L79.9 12.4002V11.2002V7.7002H80.7V13.7002H79.9L76.8 8.80019V10.0002V13.7002H76.1Z" fill="white" stroke="white" stroke-width="0.2" stroke-miterlimit="10"/>
<path d="M68.6 22.4002C66.2 22.4002 64.3 24.2002 64.3 26.7002C64.3 29.1002 66.2 31.0002 68.6 31.0002C71 31.0002 72.9 29.2002 72.9 26.7002C72.9 24.2002 71 22.4002 68.6 22.4002ZM68.6 29.2002C67.3 29.2002 66.2 28.1002 66.2 26.6002C66.2 25.1002 67.3 24.0002 68.6 24.0002C69.9 24.0002 71 25.0002 71 26.6002C71 28.2002 69.9 29.2002 68.6 29.2002ZM59.3 22.4002C56.9 22.4002 55 24.2002 55 26.7002C55 29.1002 56.9 31.0002 59.3 31.0002C61.7 31.0002 63.6 29.2002 63.6 26.7002C63.6 24.2002 61.7 22.4002 59.3 22.4002ZM59.3 29.2002C58 29.2002 56.9 28.1002 56.9 26.6002C56.9 25.1002 58 24.0002 59.3 24.0002C60.6 24.0002 61.7 25.0002 61.7 26.6002C61.7 28.2002 60.6 29.2002 59.3 29.2002ZM48.2 23.7002V25.5002H52.5C52.4 26.5002 52 27.3002 51.5 27.8002C50.9 28.4002 49.9 29.1002 48.2 29.1002C45.5 29.1002 43.5 27.0002 43.5 24.3002C43.5 21.6002 45.6 19.5002 48.2 19.5002C49.6 19.5002 50.7 20.1002 51.5 20.8002L52.8 19.5002C51.7 18.5002 50.3 17.7002 48.3 17.7002C44.7 17.7002 41.6 20.7002 41.6 24.3002C41.6 27.9002 44.7 30.9002 48.3 30.9002C50.3 30.9002 51.7 30.3002 52.9 29.0002C54.1 27.8002 54.5 26.1002 54.5 24.8002C54.5 24.4002 54.5 24.0002 54.4 23.7002H48.2ZM93.6 25.1002C93.2 24.1002 92.2 22.4002 90 22.4002C87.8 22.4002 86 24.1002 86 26.7002C86 29.1002 87.8 31.0002 90.2 31.0002C92.1 31.0002 93.3 29.8002 93.7 29.1002L92.3 28.1002C91.8 28.8002 91.2 29.3002 90.2 29.3002C89.2 29.3002 88.6 28.9002 88.1 28.0002L93.8 25.6002L93.6 25.1002ZM87.8 26.5002C87.8 24.9002 89.1 24.0002 90 24.0002C90.7 24.0002 91.4 24.4002 91.6 24.9002L87.8 26.5002ZM83.1 30.7002H85V18.2002H83.1V30.7002ZM80.1 23.4002C79.6 22.9002 78.8 22.4002 77.8 22.4002C75.7 22.4002 73.7 24.3002 73.7 26.7002C73.7 29.1002 75.6 30.9002 77.8 30.9002C78.8 30.9002 79.6 30.4002 80 29.9002H80.1V30.5002C80.1 32.1002 79.2 33.0002 77.8 33.0002C76.7 33.0002 75.9 32.2002 75.7 31.5002L74 32.2002C74.5 33.3002 75.7 34.7002 77.8 34.7002C80 34.7002 81.8 33.4002 81.8 30.3002V22.7002H80V23.4002H80.1ZM77.9 29.2002C76.6 29.2002 75.5 28.1002 75.5 26.6002C75.5 25.1002 76.6 24.0002 77.9 24.0002C79.2 24.0002 80.2 25.1002 80.2 26.6002C80.2 28.2002 79.2 29.2002 77.9 29.2002ZM102.3 18.2002H97.8V30.7002H99.7V26.0002H102.3C104.4 26.0002 106.4 24.5002 106.4 22.1002C106.4 19.7002 104.4 18.2002 102.3 18.2002ZM102.4 24.2002H99.7V19.9002H102.4C103.8 19.9002 104.6 21.1002 104.6 22.0002C104.5 23.0002 103.7 24.2002 102.4 24.2002ZM113.9 22.4002C112.5 22.4002 111.1 23.0002 110.6 24.3002L112.3 25.0002C112.7 24.3002 113.3 24.1002 114 24.1002C115 24.1002 115.9 24.7002 116 25.7002V25.8002C115.7 25.6002 114.9 25.3002 114.1 25.3002C112.3 25.3002 110.5 26.3002 110.5 28.1002C110.5 29.8002 112 30.9002 113.6 30.9002C114.9 30.9002 115.5 30.3002 116 29.7002H116.1V30.7002H117.9V25.9002C117.7 23.6002 116 22.4002 113.9 22.4002ZM113.7 29.2002C113.1 29.2002 112.2 28.9002 112.2 28.1002C112.2 27.1002 113.3 26.8002 114.2 26.8002C115 26.8002 115.4 27.0002 115.9 27.2002C115.7 28.4002 114.7 29.2002 113.7 29.2002ZM124.2 22.7002L122.1 28.1002H122L119.8 22.7002H117.8L121.1 30.3002L119.2 34.5002H121.1L126.2 22.7002H124.2ZM107.4 30.7002H109.3V18.2002H107.4V30.7002Z" fill="white"/>
<path d="M10.9 8.2002C10.6 8.5002 10.4 9.00019 10.4 9.60019V31.7002C10.4 32.3002 10.6 32.8002 10.9 33.1002L11 33.2002L23.4 20.8002V20.7002V20.6002L10.9 8.2002Z" fill="#5BC9F4"/>
<path d="M27.5 24.9005L23.4 20.8005V20.7005V20.6005L27.5 16.5005L27.6 16.6005L32.5 19.4005C33.9 20.2005 33.9 21.5005 32.5 22.3005L27.5 24.9005Z" fill="url(#paint0_linear_150635_89)"/>
<path d="M27.6 24.9002L23.4 20.7002L10.9 33.1002C11.4 33.6002 12.1 33.6002 13 33.2002L27.6 24.9002Z" fill="url(#paint1_linear_150635_89)"/>
<path d="M27.6 16.4003L13 8.20031C12.1 7.70031 11.4 7.80031 10.9 8.30031L23.4 20.8003L27.6 16.4003Z" fill="url(#paint2_linear_150635_89)"/>
</g>
<defs>
<linearGradient id="paint0_linear_150635_89" x1="31.5888" y1="20.6675" x2="7.41205" y2="20.6675" gradientUnits="userSpaceOnUse">
<stop stop-color="#FEE000"/>
<stop offset="0.1941" stop-color="#FCCF0B"/>
<stop offset="0.5469" stop-color="#FAB318"/>
<stop offset="0.8279" stop-color="#F9A21B"/>
<stop offset="1" stop-color="#F99B1C"/>
</linearGradient>
<linearGradient id="paint1_linear_150635_89" x1="25.3146" y1="22.96" x2="2.57514" y2="45.6995" gradientUnits="userSpaceOnUse">
<stop stop-color="#EF4547"/>
<stop offset="1" stop-color="#C6186D"/>
</linearGradient>
<linearGradient id="paint2_linear_150635_89" x1="2.47384" y1="-4.46709" x2="21.04" y2="14.099" gradientUnits="userSpaceOnUse">
<stop stop-color="#279E6F"/>
<stop offset="0.3168" stop-color="#4DAB6D"/>
<stop offset="0.7398" stop-color="#6ABA6A"/>
<stop offset="1" stop-color="#74C169"/>
</linearGradient>
<clipPath id="clip0_150635_89">
<rect width="136" height="41" fill="white"/>
</clipPath>
</defs>
</svg>
