<svg width="48" height="48" viewBox="0 0 48 48" fill="none" xmlns="http://www.w3.org/2000/svg">
<rect width="48" height="48" fill="black"/>
<path d="M23.8 10.0253C28.2888 10.0253 28.8203 10.045 30.5856 10.1237C32.2263 10.1959 33.1122 10.4716 33.7028 10.7013C34.4838 11.0031 35.0481 11.3706 35.6322 11.9547C36.2228 12.5453 36.5838 13.1031 36.8856 13.8841C37.1153 14.4747 37.3909 15.3672 37.4631 17.0012C37.5419 18.7731 37.5616 19.3047 37.5616 23.7869C37.5616 28.2756 37.5419 28.8072 37.4631 30.5725C37.3909 32.2131 37.1153 33.0991 36.8856 33.6897C36.5838 34.4706 36.2163 35.035 35.6322 35.6191C35.0416 36.2097 34.4838 36.5706 33.7028 36.8725C33.1122 37.1022 32.2197 37.3778 30.5856 37.45C28.8138 37.5287 28.2822 37.5484 23.8 37.5484C19.3113 37.5484 18.7797 37.5287 17.0144 37.45C15.3738 37.3778 14.4878 37.1022 13.8972 36.8725C13.1163 36.5706 12.5519 36.2031 11.9678 35.6191C11.3772 35.0284 11.0163 34.4706 10.7144 33.6897C10.4847 33.0991 10.2091 32.2066 10.1369 30.5725C10.0581 28.8006 10.0384 28.2691 10.0384 23.7869C10.0384 19.2981 10.0581 18.7666 10.1369 17.0012C10.2091 15.3606 10.4847 14.4747 10.7144 13.8841C11.0163 13.1031 11.3838 12.5387 11.9678 11.9547C12.5584 11.3641 13.1163 11.0031 13.8972 10.7013C14.4878 10.4716 15.3803 10.1959 17.0144 10.1237C18.7797 10.045 19.3113 10.0253 23.8 10.0253ZM23.8 7C19.2391 7 18.6681 7.01969 16.8766 7.09844C15.0916 7.17719 13.8644 7.46594 12.8013 7.87937C11.6922 8.3125 10.7538 8.88344 9.82188 9.82187C8.88344 10.7537 8.3125 11.6922 7.87938 12.7947C7.46594 13.8644 7.17719 15.085 7.09844 16.87C7.01969 18.6681 7 19.2391 7 23.8C7 28.3609 7.01969 28.9319 7.09844 30.7234C7.17719 32.5084 7.46594 33.7356 7.87938 34.7988C8.3125 35.9078 8.88344 36.8462 9.82188 37.7781C10.7538 38.71 11.6922 39.2875 12.7947 39.7141C13.8644 40.1275 15.085 40.4162 16.87 40.495C18.6616 40.5737 19.2325 40.5934 23.7934 40.5934C28.3544 40.5934 28.9253 40.5737 30.7169 40.495C32.5019 40.4162 33.7291 40.1275 34.7922 39.7141C35.8947 39.2875 36.8331 38.71 37.765 37.7781C38.6969 36.8462 39.2744 35.9078 39.7009 34.8053C40.1144 33.7356 40.4031 32.515 40.4819 30.73C40.5606 28.9384 40.5803 28.3675 40.5803 23.8066C40.5803 19.2456 40.5606 18.6747 40.4819 16.8831C40.4031 15.0981 40.1144 13.8709 39.7009 12.8078C39.2875 11.6922 38.7166 10.7537 37.7781 9.82187C36.8463 8.89 35.9078 8.3125 34.8053 7.88594C33.7356 7.4725 32.515 7.18375 30.73 7.105C28.9319 7.01969 28.3609 7 23.8 7Z" fill="white"/>
<path d="M23.6297 15C18.8653 15 15 18.8653 15 23.6297C15 28.3941 18.8653 32.2594 23.6297 32.2594C28.3941 32.2594 32.2594 28.3941 32.2594 23.6297C32.2594 18.8653 28.3941 15 23.6297 15ZM23.6297 29.2275C20.5388 29.2275 18.0319 26.7206 18.0319 23.6297C18.0319 20.5388 20.5388 18.0319 23.6297 18.0319C26.7206 18.0319 29.2275 20.5388 29.2275 23.6297C29.2275 26.7206 26.7206 29.2275 23.6297 29.2275Z" fill="white"/>
<path d="M34.0294 15.0147C34.0294 16.1303 33.1238 17.0294 32.0147 17.0294C30.8991 17.0294 30 16.1238 30 15.0147C30 13.8991 30.9056 13 32.0147 13C33.1238 13 34.0294 13.9056 34.0294 15.0147Z" fill="white"/>
</svg>
