<svg width="48" height="48" viewBox="0 0 48 48" fill="none" xmlns="http://www.w3.org/2000/svg">
<rect width="48" height="48" fill="black"/>
<path d="M36.7793 9H11.2148C9.99023 9 9 9.9668 9 11.1621V36.832C9 38.0273 9.99023 39 11.2148 39H36.7793C38.0039 39 39 38.0273 39 36.8379V11.1621C39 9.9668 38.0039 9 36.7793 9ZM17.9004 34.5645H13.4473V20.2441H17.9004V34.5645ZM15.6738 18.293C14.2441 18.293 13.0898 17.1387 13.0898 15.7148C13.0898 14.291 14.2441 13.1367 15.6738 13.1367C17.0977 13.1367 18.252 14.291 18.252 15.7148C18.252 17.1328 17.0977 18.293 15.6738 18.293ZM34.5645 34.5645H30.1172V27.6035C30.1172 25.9453 30.0879 23.8066 27.8027 23.8066C25.4883 23.8066 25.1367 25.6172 25.1367 27.4863V34.5645H20.6953V20.2441H24.9609V22.2012H25.0195C25.6113 21.0762 27.0645 19.8867 29.2266 19.8867C33.7324 19.8867 34.5645 22.8516 34.5645 26.707V34.5645V34.5645Z" fill="white"/>
</svg>
