<svg width="48" height="48" viewBox="0 0 48 48" fill="none" xmlns="http://www.w3.org/2000/svg">
<rect width="48" height="48" fill="black"/>
<path d="M18.4377 36.3759C29.7557 36.3759 35.9479 26.9968 35.9479 18.8657C35.9479 18.6021 35.942 18.3325 35.9303 18.0689C37.1348 17.1977 38.1744 16.1187 39 14.8825C37.8782 15.3817 36.6871 15.7076 35.4674 15.8493C36.7516 15.0796 37.7132 13.8703 38.1738 12.4456C36.9657 13.1616 35.6445 13.6667 34.2668 13.9392C33.3385 12.9529 32.1112 12.2998 30.7746 12.081C29.438 11.8621 28.0665 12.0897 26.8722 12.7285C25.6779 13.3673 24.7272 14.3818 24.1673 15.6151C23.6074 16.8483 23.4693 18.2317 23.7744 19.5513C21.3281 19.4285 18.9349 18.793 16.75 17.686C14.565 16.579 12.6371 15.0252 11.0912 13.1253C10.3055 14.48 10.0651 16.083 10.4188 17.6085C10.7725 19.1341 11.6938 20.4677 12.9955 21.3384C12.0183 21.3074 11.0625 21.0443 10.207 20.5708V20.647C10.2062 22.0686 10.6976 23.4466 11.5979 24.5469C12.4982 25.6471 13.7517 26.4016 15.1453 26.6821C14.2401 26.9298 13.29 26.9659 12.3686 26.7876C12.7618 28.0102 13.527 29.0795 14.5572 29.8463C15.5875 30.6131 16.8314 31.0392 18.1154 31.065C15.9355 32.7773 13.2427 33.7061 10.4707 33.7017C9.97911 33.7009 9.488 33.6708 9 33.6114C11.8161 35.4181 15.0919 36.3776 18.4377 36.3759Z" fill="white"/>
</svg>
